<svg width="20" height="20" viewBox="0 0 20 20" fill="none" xmlns="http://www.w3.org/2000/svg">
<g clip-path="url(#clip0_4945_3985)">
<path fill-rule="evenodd" clip-rule="evenodd" d="M12.7781 5.84265C11.9558 5.29325 10.9891 5 10.0002 5V0C11.978 0 13.9114 0.58649 15.5559 1.6853C17.2004 2.78411 18.4821 4.34591 19.239 6.17315C19.9959 8.0004 20.1939 10.0111 19.8081 11.9509C19.4222 13.8907 18.4698 15.6726 17.0713 17.0711C15.6728 18.4696 13.8909 19.422 11.9511 19.8078C10.0113 20.1937 8.00064 19.9956 6.17339 19.2388C4.34615 18.4819 2.78436 17.2002 1.68555 15.5557C0.586734 13.9112 0.000244141 11.9778 0.000244141 10H5.00024C5.00024 10.9889 5.29349 11.9556 5.84289 12.7779C6.39229 13.6001 7.17319 14.2409 8.08684 14.6194C9.00044 14.9978 10.0058 15.0968 10.9757 14.9039C11.9456 14.711 12.8365 14.2348 13.5358 13.5356C14.235 12.8362 14.7112 11.9453 14.9041 10.9754C15.0971 10.0055 14.9981 9.0002 14.6196 8.0866C14.2412 7.17295 13.6003 6.39205 12.7781 5.84265Z" fill="#FEFFFF"/>
<path fill-rule="evenodd" clip-rule="evenodd" d="M5.00024 2.16563e-06C5.00024 0.656612 4.87092 1.30679 4.61964 1.91342C4.36837 2.52005 4.00007 3.07124 3.53578 3.53554C3.07149 3.99983 2.52029 4.36813 1.91366 4.6194C1.30703 4.87067 0.656852 5 0.000244359 5L0.000244141 10C1.31346 10 2.61382 9.74135 3.82708 9.2388C5.04034 8.73625 6.14274 7.99965 7.07129 7.07105C7.99989 6.1425 8.73649 5.0401 9.23904 3.82684C9.74159 2.61358 10.0002 1.31322 10.0002 0L5.00024 2.16563e-06Z" fill="#FEFFFF"/>
</g>
<defs>
<clipPath id="clip0_4945_3985">
<rect width="20" height="20" fill="white"/>
</clipPath>
</defs>
</svg>
