<svg width="24" height="24" viewBox="0 0 24 24" fill="none" xmlns="http://www.w3.org/2000/svg">
<path d="M4.818 21C4.29975 21 3.86737 20.8267 3.52087 20.4802C3.17437 20.1337 3.00075 19.701 3 19.182V4.818C3 4.29975 3.17362 3.86737 3.52087 3.52087C3.86812 3.17437 4.3005 3.00075 4.818 3H19.1831C19.7006 3 20.133 3.17362 20.4802 3.52087C20.8275 3.86812 21.0007 4.3005 21 4.818V19.1831C21 19.7006 20.8267 20.133 20.4802 20.4802C20.1337 20.8275 19.701 21.0007 19.182 21H4.818ZM4.818 19.875H19.1831C19.3556 19.875 19.5142 19.803 19.659 19.659C19.8037 19.515 19.8757 19.356 19.875 19.182V7.67325H4.125V19.182C4.125 19.356 4.197 19.515 4.341 19.659C4.485 19.803 4.64362 19.875 4.81687 19.875" fill="#FEFFFF"/>
<path d="M19.9998 7.83366C21.8408 7.83366 23.3332 6.34127 23.3332 4.50033C23.3332 2.65938 21.8408 1.16699 19.9998 1.16699C18.1589 1.16699 16.6665 2.65938 16.6665 4.50033C16.6665 6.34127 18.1589 7.83366 19.9998 7.83366Z" fill="#F04438"/>
</svg>
