<svg width="1033" height="272" viewBox="0 0 1033 272" fill="none" xmlns="http://www.w3.org/2000/svg">
<path d="M1 12L989 11.9999" stroke="#707172" stroke-width="0.937305" stroke-linecap="round" stroke-dasharray="3.72 3.72"/>
<path d="M1 57.6001L989 57.6" stroke="#707172" stroke-width="0.937305" stroke-linecap="round" stroke-dasharray="3.72 3.72"/>
<path d="M1 103.2L989 103.2" stroke="#707172" stroke-width="0.937305" stroke-linecap="round" stroke-dasharray="3.72 3.72"/>
<path d="M1 148.8L989 148.8" stroke="#707172" stroke-width="0.937305" stroke-linecap="round" stroke-dasharray="3.72 3.72"/>
<path d="M1 194.4L989 194.4" stroke="#707172" stroke-width="0.937305" stroke-linecap="round" stroke-dasharray="3.72 3.72"/>
<path d="M1 240L989 240" stroke="#707172" stroke-width="0.937305" stroke-linecap="round" stroke-dasharray="3.72 3.72"/>
<rect x="1" y="66" width="8" height="58" fill="#32D583"/>
<rect x="1" y="124" width="8" height="58" fill="#FDB022"/>
<rect x="1" y="182" width="8" height="58" fill="#F04438"/>
<rect x="17" y="20" width="8" height="73.3333" fill="#F04438"/>
<rect x="17" y="93.3335" width="8" height="73.3333" fill="#36BFFA"/>
<rect x="17" y="166.667" width="8" height="73.3333" fill="#16603B"/>
<rect x="33" y="34" width="8" height="68.6667" fill="#FDB022"/>
<rect x="33" y="102.667" width="8" height="68.6667" fill="#36BFFA"/>
<rect x="33" y="171.333" width="8" height="68.6667" fill="#32D583"/>
<rect x="49" y="66" width="8" height="58" fill="#F04438"/>
<rect x="49" y="124" width="8" height="58" fill="#36BFFA"/>
<rect x="49" y="182" width="8" height="58" fill="#32D583"/>
<rect x="85.7273" y="66" width="8" height="58" fill="#32D583"/>
<rect x="85.7273" y="124" width="8" height="58" fill="#FDB022"/>
<rect x="85.7273" y="182" width="8" height="58" fill="#F04438"/>
<rect x="101.727" y="20" width="8" height="73.3333" fill="#F04438"/>
<rect x="101.727" y="93.3335" width="8" height="73.3333" fill="#36BFFA"/>
<rect x="101.727" y="166.667" width="8" height="73.3333" fill="#16603B"/>
<rect x="117.727" y="34" width="8" height="68.6667" fill="#FDB022"/>
<rect x="117.727" y="102.667" width="8" height="68.6667" fill="#36BFFA"/>
<rect x="117.727" y="171.333" width="8" height="68.6667" fill="#32D583"/>
<rect x="133.727" y="66" width="8" height="58" fill="#F04438"/>
<rect x="133.727" y="124" width="8" height="58" fill="#36BFFA"/>
<rect x="133.727" y="182" width="8" height="58" fill="#32D583"/>
<rect x="170.455" y="66" width="8" height="58" fill="#32D583"/>
<rect x="170.455" y="124" width="8" height="58" fill="#FDB022"/>
<rect x="170.455" y="182" width="8" height="58" fill="#F04438"/>
<rect x="186.455" y="20" width="8" height="73.3333" fill="#F04438"/>
<rect x="186.455" y="93.3335" width="8" height="73.3333" fill="#36BFFA"/>
<rect x="186.455" y="166.667" width="8" height="73.3333" fill="#16603B"/>
<rect x="202.455" y="34" width="8" height="68.6667" fill="#FDB022"/>
<rect x="202.455" y="102.667" width="8" height="68.6667" fill="#36BFFA"/>
<rect x="202.455" y="171.333" width="8" height="68.6667" fill="#32D583"/>
<rect x="218.455" y="66" width="8" height="58" fill="#F04438"/>
<rect x="218.455" y="124" width="8" height="58" fill="#36BFFA"/>
<rect x="218.455" y="182" width="8" height="58" fill="#32D583"/>
<rect x="255.182" y="66" width="8" height="58" fill="#32D583"/>
<rect x="255.182" y="124" width="8" height="58" fill="#FDB022"/>
<rect x="255.182" y="182" width="8" height="58" fill="#F04438"/>
<rect x="271.182" y="20" width="8" height="73.3333" fill="#F04438"/>
<rect x="271.182" y="93.3335" width="8" height="73.3333" fill="#36BFFA"/>
<rect x="271.182" y="166.667" width="8" height="73.3333" fill="#16603B"/>
<rect x="287.182" y="34" width="8" height="68.6667" fill="#FDB022"/>
<rect x="287.182" y="102.667" width="8" height="68.6667" fill="#36BFFA"/>
<rect x="287.182" y="171.333" width="8" height="68.6667" fill="#32D583"/>
<rect x="303.182" y="66" width="8" height="58" fill="#F04438"/>
<rect x="303.182" y="124" width="8" height="58" fill="#36BFFA"/>
<rect x="303.182" y="182" width="8" height="58" fill="#32D583"/>
<rect x="339.909" y="66" width="8" height="58" fill="#32D583"/>
<rect x="339.909" y="124" width="8" height="58" fill="#FDB022"/>
<rect x="339.909" y="182" width="8" height="58" fill="#F04438"/>
<rect x="355.909" y="20" width="8" height="73.3333" fill="#F04438"/>
<rect x="355.909" y="93.3335" width="8" height="73.3333" fill="#36BFFA"/>
<rect x="355.909" y="166.667" width="8" height="73.3333" fill="#16603B"/>
<rect x="371.909" y="34" width="8" height="68.6667" fill="#FDB022"/>
<rect x="371.909" y="102.667" width="8" height="68.6667" fill="#36BFFA"/>
<rect x="371.909" y="171.333" width="8" height="68.6667" fill="#32D583"/>
<rect x="387.909" y="66" width="8" height="58" fill="#F04438"/>
<rect x="387.909" y="124" width="8" height="58" fill="#36BFFA"/>
<rect x="387.909" y="182" width="8" height="58" fill="#32D583"/>
<rect x="424.636" y="66" width="8" height="58" fill="#32D583"/>
<rect x="424.636" y="124" width="8" height="58" fill="#FDB022"/>
<rect x="424.636" y="182" width="8" height="58" fill="#F04438"/>
<rect x="440.636" y="20" width="8" height="73.3333" fill="#F04438"/>
<rect x="440.636" y="93.3335" width="8" height="73.3333" fill="#36BFFA"/>
<rect x="440.636" y="166.667" width="8" height="73.3333" fill="#16603B"/>
<rect x="456.636" y="34" width="8" height="68.6667" fill="#FDB022"/>
<rect x="456.636" y="102.667" width="8" height="68.6667" fill="#36BFFA"/>
<rect x="456.636" y="171.333" width="8" height="68.6667" fill="#32D583"/>
<rect x="472.636" y="66" width="8" height="58" fill="#F04438"/>
<rect x="472.636" y="124" width="8" height="58" fill="#36BFFA"/>
<rect x="472.636" y="182" width="8" height="58" fill="#32D583"/>
<rect x="509.364" y="66" width="8" height="58" fill="#32D583"/>
<rect x="509.364" y="124" width="8" height="58" fill="#FDB022"/>
<rect x="509.364" y="182" width="8" height="58" fill="#F04438"/>
<rect x="525.364" y="20" width="8" height="73.3333" fill="#F04438"/>
<rect x="525.364" y="93.3335" width="8" height="73.3333" fill="#36BFFA"/>
<rect x="525.364" y="166.667" width="8" height="73.3333" fill="#16603B"/>
<rect x="541.364" y="34" width="8" height="68.6667" fill="#FDB022"/>
<rect x="541.364" y="102.667" width="8" height="68.6667" fill="#36BFFA"/>
<rect x="541.364" y="171.333" width="8" height="68.6667" fill="#32D583"/>
<rect x="557.364" y="66" width="8" height="58" fill="#F04438"/>
<rect x="557.364" y="124" width="8" height="58" fill="#36BFFA"/>
<rect x="557.364" y="182" width="8" height="58" fill="#32D583"/>
<rect x="594.091" y="66" width="8" height="58" fill="#32D583"/>
<rect x="594.091" y="124" width="8" height="58" fill="#FDB022"/>
<rect x="594.091" y="182" width="8" height="58" fill="#F04438"/>
<rect x="610.091" y="20" width="8" height="73.3333" fill="#F04438"/>
<rect x="610.091" y="93.3335" width="8" height="73.3333" fill="#36BFFA"/>
<rect x="610.091" y="166.667" width="8" height="73.3333" fill="#16603B"/>
<rect x="626.091" y="34" width="8" height="68.6667" fill="#FDB022"/>
<rect x="626.091" y="102.667" width="8" height="68.6667" fill="#36BFFA"/>
<rect x="626.091" y="171.333" width="8" height="68.6667" fill="#32D583"/>
<rect x="642.091" y="66" width="8" height="58" fill="#F04438"/>
<rect x="642.091" y="124" width="8" height="58" fill="#36BFFA"/>
<rect x="642.091" y="182" width="8" height="58" fill="#32D583"/>
<rect x="678.818" y="66" width="8" height="58" fill="#32D583"/>
<rect x="678.818" y="124" width="8" height="58" fill="#FDB022"/>
<rect x="678.818" y="182" width="8" height="58" fill="#F04438"/>
<rect x="694.818" y="20" width="8" height="73.3333" fill="#F04438"/>
<rect x="694.818" y="93.3335" width="8" height="73.3333" fill="#36BFFA"/>
<rect x="694.818" y="166.667" width="8" height="73.3333" fill="#16603B"/>
<rect x="710.818" y="34" width="8" height="68.6667" fill="#FDB022"/>
<rect x="710.818" y="102.667" width="8" height="68.6667" fill="#36BFFA"/>
<rect x="710.818" y="171.333" width="8" height="68.6667" fill="#32D583"/>
<rect x="726.818" y="66" width="8" height="58" fill="#F04438"/>
<rect x="726.818" y="124" width="8" height="58" fill="#36BFFA"/>
<rect x="726.818" y="182" width="8" height="58" fill="#32D583"/>
<rect x="763.545" y="66" width="8" height="58" fill="#32D583"/>
<rect x="763.545" y="124" width="8" height="58" fill="#FDB022"/>
<rect x="763.545" y="182" width="8" height="58" fill="#F04438"/>
<rect x="779.545" y="20" width="8" height="73.3333" fill="#F04438"/>
<rect x="779.545" y="93.3335" width="8" height="73.3333" fill="#36BFFA"/>
<rect x="779.545" y="166.667" width="8" height="73.3333" fill="#16603B"/>
<rect x="795.545" y="34" width="8" height="68.6667" fill="#FDB022"/>
<rect x="795.545" y="102.667" width="8" height="68.6667" fill="#36BFFA"/>
<rect x="795.545" y="171.333" width="8" height="68.6667" fill="#32D583"/>
<rect x="811.545" y="66" width="8" height="58" fill="#F04438"/>
<rect x="811.545" y="124" width="8" height="58" fill="#36BFFA"/>
<rect x="811.545" y="182" width="8" height="58" fill="#32D583"/>
<rect x="848.273" y="66" width="8" height="58" fill="#32D583"/>
<rect x="848.273" y="124" width="8" height="58" fill="#FDB022"/>
<rect x="848.273" y="182" width="8" height="58" fill="#F04438"/>
<rect x="864.273" y="20" width="8" height="73.3333" fill="#F04438"/>
<rect x="864.273" y="93.3335" width="8" height="73.3333" fill="#36BFFA"/>
<rect x="864.273" y="166.667" width="8" height="73.3333" fill="#16603B"/>
<rect x="880.273" y="34" width="8" height="68.6667" fill="#FDB022"/>
<rect x="880.273" y="102.667" width="8" height="68.6667" fill="#36BFFA"/>
<rect x="880.273" y="171.333" width="8" height="68.6667" fill="#32D583"/>
<rect x="896.273" y="66" width="8" height="58" fill="#F04438"/>
<rect x="896.273" y="124" width="8" height="58" fill="#36BFFA"/>
<rect x="896.273" y="182" width="8" height="58" fill="#32D583"/>
<rect x="933" y="66" width="8" height="58" fill="#32D583"/>
<rect x="933" y="124" width="8" height="58" fill="#FDB022"/>
<rect x="933" y="182" width="8" height="58" fill="#F04438"/>
<rect x="949" y="20" width="8" height="73.3333" fill="#F04438"/>
<rect x="949" y="93.3335" width="8" height="73.3333" fill="#36BFFA"/>
<rect x="949" y="166.667" width="8" height="73.3333" fill="#16603B"/>
<rect x="965" y="34" width="8" height="68.6667" fill="#FDB022"/>
<rect x="965" y="102.667" width="8" height="68.6667" fill="#36BFFA"/>
<rect x="965" y="171.333" width="8" height="68.6667" fill="#32D583"/>
<rect x="981" y="66" width="8" height="58" fill="#F04438"/>
<rect x="981" y="124" width="8" height="58" fill="#36BFFA"/>
<rect x="981" y="182" width="8" height="58" fill="#32D583"/>
<path d="M1018.72 16.168C1018.18 16.168 1017.67 16.0747 1017.2 15.888C1016.72 15.692 1016.3 15.4167 1015.95 15.062C1015.6 14.698 1015.35 14.2733 1015.19 13.788L1016.31 13.312C1016.51 13.8253 1016.83 14.2267 1017.27 14.516C1017.71 14.796 1018.2 14.936 1018.72 14.936C1019.15 14.936 1019.53 14.8427 1019.86 14.656C1020.19 14.46 1020.45 14.194 1020.64 13.858C1020.83 13.5127 1020.92 13.13 1020.92 12.71C1020.92 12.2713 1020.82 11.884 1020.63 11.548C1020.44 11.212 1020.18 10.9507 1019.86 10.764C1019.53 10.568 1019.16 10.47 1018.74 10.47C1018.31 10.47 1017.91 10.568 1017.56 10.764C1017.21 10.96 1016.95 11.2073 1016.79 11.506L1015.68 11.268L1016.48 5.57H1021.89V6.76H1017L1017.53 6.228L1016.92 10.652L1016.44 10.372C1016.75 9.98 1017.11 9.7 1017.52 9.532C1017.94 9.35467 1018.39 9.266 1018.88 9.266C1019.56 9.266 1020.15 9.42 1020.67 9.728C1021.18 10.036 1021.58 10.4467 1021.87 10.96C1022.16 11.4733 1022.31 12.0567 1022.31 12.71C1022.31 13.3633 1022.15 13.9513 1021.83 14.474C1021.52 14.9967 1021.1 15.412 1020.56 15.72C1020.02 16.0187 1019.41 16.168 1018.72 16.168ZM1027.95 16.168C1027.12 16.168 1026.39 15.944 1025.77 15.496C1025.15 15.0387 1024.67 14.4087 1024.33 13.606C1023.98 12.794 1023.81 11.8513 1023.81 10.778C1023.81 9.70467 1023.98 8.76667 1024.33 7.964C1024.67 7.152 1025.15 6.522 1025.77 6.074C1026.38 5.626 1027.11 5.402 1027.94 5.402C1028.77 5.402 1029.49 5.626 1030.11 6.074C1030.72 6.522 1031.2 7.152 1031.55 7.964C1031.9 8.76667 1032.08 9.70467 1032.08 10.778C1032.08 11.8513 1031.91 12.794 1031.56 13.606C1031.22 14.418 1030.73 15.048 1030.11 15.496C1029.49 15.944 1028.77 16.168 1027.95 16.168ZM1027.95 14.894C1028.51 14.894 1029 14.726 1029.41 14.39C1029.82 14.0447 1030.14 13.564 1030.36 12.948C1030.59 12.332 1030.71 11.6087 1030.71 10.778C1030.71 9.94733 1030.59 9.224 1030.36 8.608C1030.14 7.992 1029.81 7.516 1029.39 7.18C1028.98 6.844 1028.5 6.676 1027.94 6.676C1027.38 6.676 1026.89 6.844 1026.48 7.18C1026.07 7.516 1025.75 7.992 1025.52 8.608C1025.29 9.224 1025.18 9.94733 1025.18 10.778C1025.18 11.5993 1025.29 12.318 1025.52 12.934C1025.75 13.55 1026.07 14.0307 1026.48 14.376C1026.9 14.7213 1027.39 14.894 1027.95 14.894Z" fill="white"/>
<path d="M1019.95 60V57.592H1014.82V56.458L1019.92 49.57H1021.24V56.458H1022.59V57.592H1021.24V60H1019.95ZM1015.86 56.948L1015.66 56.458H1019.95V50.718L1020.35 50.83L1015.86 56.948ZM1027.95 60.168C1027.12 60.168 1026.39 59.944 1025.77 59.496C1025.15 59.0387 1024.67 58.4087 1024.33 57.606C1023.98 56.794 1023.81 55.8513 1023.81 54.778C1023.81 53.7047 1023.98 52.7667 1024.33 51.964C1024.67 51.152 1025.15 50.522 1025.77 50.074C1026.38 49.626 1027.11 49.402 1027.94 49.402C1028.77 49.402 1029.49 49.626 1030.11 50.074C1030.72 50.522 1031.2 51.152 1031.55 51.964C1031.9 52.7667 1032.08 53.7047 1032.08 54.778C1032.08 55.8513 1031.91 56.794 1031.56 57.606C1031.22 58.418 1030.73 59.048 1030.11 59.496C1029.49 59.944 1028.77 60.168 1027.95 60.168ZM1027.95 58.894C1028.51 58.894 1029 58.726 1029.41 58.39C1029.82 58.0447 1030.14 57.564 1030.36 56.948C1030.59 56.332 1030.71 55.6087 1030.71 54.778C1030.71 53.9473 1030.59 53.224 1030.36 52.608C1030.14 51.992 1029.81 51.516 1029.39 51.18C1028.98 50.844 1028.5 50.676 1027.94 50.676C1027.38 50.676 1026.89 50.844 1026.48 51.18C1026.07 51.516 1025.75 51.992 1025.52 52.608C1025.29 53.224 1025.18 53.9473 1025.18 54.778C1025.18 55.5993 1025.29 56.318 1025.52 56.934C1025.75 57.55 1026.07 58.0307 1026.48 58.376C1026.9 58.7213 1027.39 58.894 1027.95 58.894Z" fill="white"/>
<path d="M1018.72 104.168C1018.17 104.168 1017.66 104.07 1017.18 103.874C1016.7 103.678 1016.29 103.403 1015.95 103.048C1015.6 102.684 1015.35 102.255 1015.18 101.76L1016.34 101.284C1016.54 101.807 1016.84 102.213 1017.26 102.502C1017.68 102.791 1018.17 102.936 1018.72 102.936C1019.15 102.936 1019.53 102.852 1019.87 102.684C1020.2 102.516 1020.47 102.273 1020.65 101.956C1020.85 101.639 1020.95 101.256 1020.95 100.808C1020.95 100.351 1020.85 99.968 1020.65 99.66C1020.47 99.3427 1020.2 99.1 1019.87 98.932C1019.53 98.764 1019.14 98.68 1018.71 98.68C1018.57 98.68 1018.41 98.6893 1018.24 98.708C1018.09 98.7267 1017.95 98.7547 1017.84 98.792L1017.54 98.162L1020.33 94.76H1015.71V93.57H1021.88V94.718L1019.22 97.994L1019.14 97.63C1019.77 97.6487 1020.32 97.7933 1020.79 98.064C1021.27 98.3347 1021.64 98.7033 1021.91 99.17C1022.18 99.6273 1022.32 100.164 1022.32 100.78C1022.32 101.415 1022.16 101.989 1021.86 102.502C1021.55 103.015 1021.12 103.421 1020.58 103.72C1020.04 104.019 1019.42 104.168 1018.72 104.168ZM1027.95 104.168C1027.12 104.168 1026.39 103.944 1025.77 103.496C1025.15 103.039 1024.67 102.409 1024.33 101.606C1023.98 100.794 1023.81 99.8513 1023.81 98.778C1023.81 97.7047 1023.98 96.7667 1024.33 95.964C1024.67 95.152 1025.15 94.522 1025.77 94.074C1026.38 93.626 1027.11 93.402 1027.94 93.402C1028.77 93.402 1029.49 93.626 1030.11 94.074C1030.72 94.522 1031.2 95.152 1031.55 95.964C1031.9 96.7667 1032.08 97.7047 1032.08 98.778C1032.08 99.8513 1031.91 100.794 1031.56 101.606C1031.22 102.418 1030.73 103.048 1030.11 103.496C1029.49 103.944 1028.77 104.168 1027.95 104.168ZM1027.95 102.894C1028.51 102.894 1029 102.726 1029.41 102.39C1029.82 102.045 1030.14 101.564 1030.36 100.948C1030.59 100.332 1030.71 99.6087 1030.71 98.778C1030.71 97.9473 1030.59 97.224 1030.36 96.608C1030.14 95.992 1029.81 95.516 1029.39 95.18C1028.98 94.844 1028.5 94.676 1027.94 94.676C1027.38 94.676 1026.89 94.844 1026.48 95.18C1026.07 95.516 1025.75 95.992 1025.52 96.608C1025.29 97.224 1025.18 97.9473 1025.18 98.778C1025.18 99.5993 1025.29 100.318 1025.52 100.934C1025.75 101.55 1026.07 102.031 1026.48 102.376C1026.9 102.721 1027.39 102.894 1027.95 102.894Z" fill="white"/>
<path d="M1015.52 148V147.048L1018.41 143.926C1018.98 143.319 1019.43 142.82 1019.77 142.428C1020.11 142.036 1020.36 141.686 1020.52 141.378C1020.68 141.07 1020.76 140.743 1020.76 140.398C1020.76 139.829 1020.59 139.39 1020.26 139.082C1019.92 138.774 1019.48 138.62 1018.93 138.62C1018.37 138.62 1017.89 138.783 1017.5 139.11C1017.11 139.427 1016.84 139.88 1016.69 140.468L1015.44 140.146C1015.56 139.586 1015.79 139.101 1016.11 138.69C1016.44 138.279 1016.84 137.962 1017.33 137.738C1017.82 137.514 1018.35 137.402 1018.93 137.402C1019.56 137.402 1020.12 137.528 1020.59 137.78C1021.08 138.023 1021.46 138.363 1021.73 138.802C1022.01 139.241 1022.15 139.749 1022.15 140.328C1022.15 140.711 1022.07 141.084 1021.91 141.448C1021.75 141.812 1021.52 142.199 1021.21 142.61C1020.9 143.011 1020.5 143.478 1020 144.01L1017.43 146.81H1022.37V148H1015.52ZM1027.95 148.168C1027.12 148.168 1026.39 147.944 1025.77 147.496C1025.15 147.039 1024.67 146.409 1024.33 145.606C1023.98 144.794 1023.81 143.851 1023.81 142.778C1023.81 141.705 1023.98 140.767 1024.33 139.964C1024.67 139.152 1025.15 138.522 1025.77 138.074C1026.38 137.626 1027.11 137.402 1027.94 137.402C1028.77 137.402 1029.49 137.626 1030.11 138.074C1030.72 138.522 1031.2 139.152 1031.55 139.964C1031.9 140.767 1032.08 141.705 1032.08 142.778C1032.08 143.851 1031.91 144.794 1031.56 145.606C1031.22 146.418 1030.73 147.048 1030.11 147.496C1029.49 147.944 1028.77 148.168 1027.95 148.168ZM1027.95 146.894C1028.51 146.894 1029 146.726 1029.41 146.39C1029.82 146.045 1030.14 145.564 1030.36 144.948C1030.59 144.332 1030.71 143.609 1030.71 142.778C1030.71 141.947 1030.59 141.224 1030.36 140.608C1030.14 139.992 1029.81 139.516 1029.39 139.18C1028.98 138.844 1028.5 138.676 1027.94 138.676C1027.38 138.676 1026.89 138.844 1026.48 139.18C1026.07 139.516 1025.75 139.992 1025.52 140.608C1025.29 141.224 1025.18 141.947 1025.18 142.778C1025.18 143.599 1025.29 144.318 1025.52 144.934C1025.75 145.55 1026.07 146.031 1026.48 146.376C1026.9 146.721 1027.39 146.894 1027.95 146.894Z" fill="white"/>
<path d="M1020.3 192V182.76H1018.32V181.57H1021.68V192H1020.3ZM1027.95 192.168C1027.12 192.168 1026.39 191.944 1025.77 191.496C1025.15 191.039 1024.67 190.409 1024.33 189.606C1023.98 188.794 1023.81 187.851 1023.81 186.778C1023.81 185.705 1023.98 184.767 1024.33 183.964C1024.67 183.152 1025.15 182.522 1025.77 182.074C1026.38 181.626 1027.11 181.402 1027.94 181.402C1028.77 181.402 1029.49 181.626 1030.11 182.074C1030.72 182.522 1031.2 183.152 1031.55 183.964C1031.9 184.767 1032.08 185.705 1032.08 186.778C1032.08 187.851 1031.91 188.794 1031.56 189.606C1031.22 190.418 1030.73 191.048 1030.11 191.496C1029.49 191.944 1028.77 192.168 1027.95 192.168ZM1027.95 190.894C1028.51 190.894 1029 190.726 1029.41 190.39C1029.82 190.045 1030.14 189.564 1030.36 188.948C1030.59 188.332 1030.71 187.609 1030.71 186.778C1030.71 185.947 1030.59 185.224 1030.36 184.608C1030.14 183.992 1029.81 183.516 1029.39 183.18C1028.98 182.844 1028.5 182.676 1027.94 182.676C1027.38 182.676 1026.89 182.844 1026.48 183.18C1026.07 183.516 1025.75 183.992 1025.52 184.608C1025.29 185.224 1025.18 185.947 1025.18 186.778C1025.18 187.599 1025.29 188.318 1025.52 188.934C1025.75 189.55 1026.07 190.031 1026.48 190.376C1026.9 190.721 1027.39 190.894 1027.95 190.894Z" fill="white"/>
<path d="M1027.95 236.168C1027.12 236.168 1026.39 235.944 1025.77 235.496C1025.15 235.039 1024.67 234.409 1024.33 233.606C1023.98 232.794 1023.81 231.851 1023.81 230.778C1023.81 229.705 1023.98 228.767 1024.33 227.964C1024.67 227.152 1025.15 226.522 1025.77 226.074C1026.38 225.626 1027.11 225.402 1027.94 225.402C1028.77 225.402 1029.49 225.626 1030.11 226.074C1030.72 226.522 1031.2 227.152 1031.55 227.964C1031.9 228.767 1032.08 229.705 1032.08 230.778C1032.08 231.851 1031.91 232.794 1031.56 233.606C1031.22 234.418 1030.73 235.048 1030.11 235.496C1029.49 235.944 1028.77 236.168 1027.95 236.168ZM1027.95 234.894C1028.51 234.894 1029 234.726 1029.41 234.39C1029.82 234.045 1030.14 233.564 1030.36 232.948C1030.59 232.332 1030.71 231.609 1030.71 230.778C1030.71 229.947 1030.59 229.224 1030.36 228.608C1030.14 227.992 1029.81 227.516 1029.39 227.18C1028.98 226.844 1028.5 226.676 1027.94 226.676C1027.38 226.676 1026.89 226.844 1026.48 227.18C1026.07 227.516 1025.75 227.992 1025.52 228.608C1025.29 229.224 1025.18 229.947 1025.18 230.778C1025.18 231.599 1025.29 232.318 1025.52 232.934C1025.75 233.55 1026.07 234.031 1026.48 234.376C1026.9 234.721 1027.39 234.894 1027.95 234.894Z" fill="white"/>
<path d="M19.1929 268V266.67H19.7669C20.2616 266.67 20.6536 266.525 20.9429 266.236C21.2322 265.937 21.3769 265.536 21.3769 265.032V257.57H22.7629V265.004C22.7629 265.611 22.6369 266.138 22.3849 266.586C22.1422 267.034 21.7969 267.384 21.3489 267.636C20.9009 267.879 20.3736 268 19.7669 268H19.1929ZM26.8333 268.168C26.3386 268.168 25.8999 268.079 25.5173 267.902C25.1439 267.715 24.8499 267.463 24.6353 267.146C24.4206 266.819 24.3133 266.446 24.3133 266.026C24.3133 265.625 24.3973 265.265 24.5653 264.948C24.7426 264.621 25.0133 264.346 25.3773 264.122C25.7506 263.898 26.2173 263.739 26.7773 263.646L29.5773 263.184V264.276L27.0713 264.696C26.5859 264.78 26.2313 264.934 26.0073 265.158C25.7926 265.382 25.6853 265.657 25.6853 265.984C25.6853 266.292 25.8066 266.549 26.0493 266.754C26.3013 266.959 26.6139 267.062 26.9873 267.062C27.4633 267.062 27.8739 266.964 28.2193 266.768C28.5739 266.563 28.8493 266.287 29.0453 265.942C29.2506 265.597 29.3533 265.214 29.3533 264.794V262.876C29.3533 262.465 29.1993 262.134 28.8913 261.882C28.5926 261.621 28.1959 261.49 27.7013 261.49C27.2719 261.49 26.8893 261.602 26.5533 261.826C26.2266 262.041 25.9839 262.33 25.8253 262.694L24.6913 262.106C24.8313 261.761 25.0553 261.453 25.3633 261.182C25.6713 260.902 26.0306 260.683 26.4413 260.524C26.8519 260.365 27.2813 260.286 27.7293 260.286C28.3079 260.286 28.8166 260.398 29.2553 260.622C29.6939 260.837 30.0346 261.14 30.2773 261.532C30.5293 261.915 30.6553 262.363 30.6553 262.876V268H29.3813V266.572L29.6193 266.656C29.4606 266.955 29.2459 267.216 28.9753 267.44C28.7046 267.664 28.3873 267.841 28.0233 267.972C27.6593 268.103 27.2626 268.168 26.8333 268.168ZM32.394 268V260.454H33.668V261.924L33.458 261.798C33.6447 261.322 33.9433 260.953 34.354 260.692C34.774 260.421 35.264 260.286 35.824 260.286C36.3653 260.286 36.846 260.407 37.266 260.65C37.6953 260.893 38.0313 261.229 38.274 261.658C38.526 262.087 38.652 262.573 38.652 263.114V268H37.336V263.534C37.336 263.114 37.2613 262.759 37.112 262.47C36.9627 262.181 36.748 261.957 36.468 261.798C36.1973 261.63 35.8847 261.546 35.53 261.546C35.1753 261.546 34.858 261.63 34.578 261.798C34.3073 261.957 34.0927 262.185 33.934 262.484C33.7753 262.773 33.696 263.123 33.696 263.534V268H32.394Z" fill="white"/>
<path d="M102.222 268V257.57H108.83V258.83H103.594V262.204H108.34V263.464H103.594V268H102.222ZM113.19 268.168C112.462 268.168 111.813 267.995 111.244 267.65C110.674 267.305 110.226 266.833 109.9 266.236C109.573 265.629 109.41 264.953 109.41 264.206C109.41 263.45 109.568 262.778 109.886 262.19C110.212 261.602 110.651 261.14 111.202 260.804C111.762 260.459 112.387 260.286 113.078 260.286C113.638 260.286 114.132 260.389 114.562 260.594C115 260.79 115.369 261.061 115.668 261.406C115.976 261.742 116.209 262.129 116.368 262.568C116.536 262.997 116.62 263.445 116.62 263.912C116.62 264.015 116.61 264.131 116.592 264.262C116.582 264.383 116.568 264.5 116.55 264.612H110.362V263.492H115.794L115.178 263.996C115.262 263.511 115.215 263.077 115.038 262.694C114.86 262.311 114.599 262.008 114.254 261.784C113.908 261.56 113.516 261.448 113.078 261.448C112.639 261.448 112.238 261.56 111.874 261.784C111.51 262.008 111.225 262.33 111.02 262.75C110.824 263.161 110.744 263.651 110.782 264.22C110.744 264.771 110.828 265.256 111.034 265.676C111.248 266.087 111.547 266.409 111.93 266.642C112.322 266.866 112.746 266.978 113.204 266.978C113.708 266.978 114.132 266.861 114.478 266.628C114.823 266.395 115.103 266.096 115.318 265.732L116.41 266.292C116.26 266.637 116.027 266.955 115.71 267.244C115.402 267.524 115.033 267.748 114.604 267.916C114.184 268.084 113.712 268.168 113.19 268.168ZM121.943 268.168C121.337 268.168 120.781 268.033 120.277 267.762C119.783 267.491 119.4 267.109 119.129 266.614L119.311 266.39V268H118.037V257.402H119.339V262.078L119.143 261.756C119.423 261.308 119.806 260.953 120.291 260.692C120.777 260.421 121.332 260.286 121.957 260.286C122.667 260.286 123.301 260.459 123.861 260.804C124.431 261.149 124.879 261.621 125.205 262.218C125.532 262.806 125.695 263.478 125.695 264.234C125.695 264.971 125.532 265.639 125.205 266.236C124.879 266.833 124.431 267.305 123.861 267.65C123.301 267.995 122.662 268.168 121.943 268.168ZM121.845 266.908C122.321 266.908 122.746 266.791 123.119 266.558C123.493 266.325 123.782 266.007 123.987 265.606C124.202 265.195 124.309 264.738 124.309 264.234C124.309 263.711 124.202 263.254 123.987 262.862C123.782 262.461 123.493 262.143 123.119 261.91C122.746 261.667 122.321 261.546 121.845 261.546C121.369 261.546 120.94 261.663 120.557 261.896C120.184 262.129 119.885 262.451 119.661 262.862C119.447 263.263 119.339 263.721 119.339 264.234C119.339 264.738 119.447 265.195 119.661 265.606C119.885 266.007 120.184 266.325 120.557 266.558C120.94 266.791 121.369 266.908 121.845 266.908Z" fill="white"/>
<path d="M187.435 268V257.57H188.695L192.601 263.128H191.957L195.835 257.57H197.095V268H195.709V259.306L196.199 259.46L192.321 264.92H192.209L188.373 259.46L188.807 259.306V268H187.435ZM201.189 268.168C200.695 268.168 200.256 268.079 199.873 267.902C199.5 267.715 199.206 267.463 198.991 267.146C198.777 266.819 198.669 266.446 198.669 266.026C198.669 265.625 198.753 265.265 198.921 264.948C199.099 264.621 199.369 264.346 199.733 264.122C200.107 263.898 200.573 263.739 201.133 263.646L203.933 263.184V264.276L201.427 264.696C200.942 264.78 200.587 264.934 200.363 265.158C200.149 265.382 200.041 265.657 200.041 265.984C200.041 266.292 200.163 266.549 200.405 266.754C200.657 266.959 200.97 267.062 201.343 267.062C201.819 267.062 202.23 266.964 202.575 266.768C202.93 266.563 203.205 266.287 203.401 265.942C203.607 265.597 203.709 265.214 203.709 264.794V262.876C203.709 262.465 203.555 262.134 203.247 261.882C202.949 261.621 202.552 261.49 202.057 261.49C201.628 261.49 201.245 261.602 200.909 261.826C200.583 262.041 200.34 262.33 200.181 262.694L199.047 262.106C199.187 261.761 199.411 261.453 199.719 261.182C200.027 260.902 200.387 260.683 200.797 260.524C201.208 260.365 201.637 260.286 202.085 260.286C202.664 260.286 203.173 260.398 203.611 260.622C204.05 260.837 204.391 261.14 204.633 261.532C204.885 261.915 205.011 262.363 205.011 262.876V268H203.737V266.572L203.975 266.656C203.817 266.955 203.602 267.216 203.331 267.44C203.061 267.664 202.743 267.841 202.379 267.972C202.015 268.103 201.619 268.168 201.189 268.168ZM206.75 268V260.454H208.024V261.84L207.884 261.644C208.061 261.215 208.332 260.897 208.696 260.692C209.06 260.477 209.503 260.37 210.026 260.37H210.488V261.602H209.83C209.298 261.602 208.869 261.77 208.542 262.106C208.215 262.433 208.052 262.899 208.052 263.506V268H206.75Z" fill="white"/>
<path d="M271.783 268L275.521 257.57H277.145L280.883 268H279.413L278.559 265.55H274.107L273.253 268H271.783ZM274.541 264.29H278.125L276.137 258.564H276.529L274.541 264.29ZM281.763 270.8V260.454H283.037V262.078L282.869 261.756C283.149 261.308 283.532 260.953 284.017 260.692C284.502 260.421 285.058 260.286 285.683 260.286C286.392 260.286 287.027 260.459 287.587 260.804C288.156 261.149 288.604 261.621 288.931 262.218C289.258 262.806 289.421 263.478 289.421 264.234C289.421 264.971 289.258 265.639 288.931 266.236C288.604 266.833 288.156 267.305 287.587 267.65C287.027 267.995 286.388 268.168 285.669 268.168C285.062 268.168 284.507 268.033 284.003 267.762C283.508 267.491 283.126 267.109 282.855 266.614L283.065 266.39V270.8H281.763ZM285.571 266.908C286.047 266.908 286.472 266.791 286.845 266.558C287.218 266.325 287.508 266.007 287.713 265.606C287.928 265.195 288.035 264.738 288.035 264.234C288.035 263.711 287.928 263.254 287.713 262.862C287.508 262.461 287.218 262.143 286.845 261.91C286.472 261.667 286.047 261.546 285.571 261.546C285.095 261.546 284.666 261.663 284.283 261.896C283.91 262.129 283.611 262.451 283.387 262.862C283.172 263.263 283.065 263.721 283.065 264.234C283.065 264.738 283.172 265.195 283.387 265.606C283.611 266.007 283.91 266.325 284.283 266.558C284.666 266.791 285.095 266.908 285.571 266.908ZM290.848 268V260.454H292.122V261.84L291.982 261.644C292.16 261.215 292.43 260.897 292.794 260.692C293.158 260.477 293.602 260.37 294.124 260.37H294.586V261.602H293.928C293.396 261.602 292.967 261.77 292.64 262.106C292.314 262.433 292.15 262.899 292.15 263.506V268H290.848Z" fill="white"/>
<path d="M357.402 268V257.57H358.662L362.568 263.128H361.924L365.802 257.57H367.062V268H365.676V259.306L366.166 259.46L362.288 264.92H362.176L358.34 259.46L358.774 259.306V268H357.402ZM372.416 268.168C371.688 268.168 371.04 267.995 370.47 267.65C369.901 267.305 369.453 266.833 369.126 266.236C368.8 265.629 368.636 264.953 368.636 264.206C368.636 263.45 368.795 262.778 369.112 262.19C369.439 261.602 369.878 261.14 370.428 260.804C370.988 260.459 371.614 260.286 372.304 260.286C372.864 260.286 373.359 260.389 373.788 260.594C374.227 260.79 374.596 261.061 374.894 261.406C375.202 261.742 375.436 262.129 375.594 262.568C375.762 262.997 375.846 263.445 375.846 263.912C375.846 264.015 375.837 264.131 375.818 264.262C375.809 264.383 375.795 264.5 375.776 264.612H369.588V263.492H375.02L374.404 263.996C374.488 263.511 374.442 263.077 374.264 262.694C374.087 262.311 373.826 262.008 373.48 261.784C373.135 261.56 372.743 261.448 372.304 261.448C371.866 261.448 371.464 261.56 371.1 261.784C370.736 262.008 370.452 262.33 370.246 262.75C370.05 263.161 369.971 263.651 370.008 264.22C369.971 264.771 370.055 265.256 370.26 265.676C370.475 266.087 370.774 266.409 371.156 266.642C371.548 266.866 371.973 266.978 372.43 266.978C372.934 266.978 373.359 266.861 373.704 266.628C374.05 266.395 374.33 266.096 374.544 265.732L375.636 266.292C375.487 266.637 375.254 266.955 374.936 267.244C374.628 267.524 374.26 267.748 373.83 267.916C373.41 268.084 372.939 268.168 372.416 268.168ZM377.264 268V260.454H378.566V268H377.264ZM377.264 259.25V257.57H378.566V259.25H377.264Z" fill="white"/>
<path d="M442.795 268V266.67H443.369C443.864 266.67 444.256 266.525 444.545 266.236C444.834 265.937 444.979 265.536 444.979 265.032V257.57H446.365V265.004C446.365 265.611 446.239 266.138 445.987 266.586C445.744 267.034 445.399 267.384 444.951 267.636C444.503 267.879 443.976 268 443.369 268H442.795ZM450.897 268.168C450.356 268.168 449.866 268.042 449.427 267.79C448.998 267.538 448.662 267.188 448.419 266.74C448.186 266.283 448.069 265.76 448.069 265.172V260.454H449.371V265.032C449.371 265.405 449.446 265.732 449.595 266.012C449.754 266.292 449.969 266.511 450.239 266.67C450.519 266.829 450.837 266.908 451.191 266.908C451.546 266.908 451.859 266.829 452.129 266.67C452.409 266.511 452.624 266.283 452.773 265.984C452.932 265.685 453.011 265.331 453.011 264.92V260.454H454.327V268H453.053V266.53L453.263 266.656C453.086 267.132 452.783 267.505 452.353 267.776C451.933 268.037 451.448 268.168 450.897 268.168ZM456.065 268V260.454H457.339V261.924L457.129 261.798C457.315 261.322 457.614 260.953 458.025 260.692C458.445 260.421 458.935 260.286 459.495 260.286C460.036 260.286 460.517 260.407 460.937 260.65C461.366 260.893 461.702 261.229 461.945 261.658C462.197 262.087 462.323 262.573 462.323 263.114V268H461.007V263.534C461.007 263.114 460.932 262.759 460.783 262.47C460.633 262.181 460.419 261.957 460.139 261.798C459.868 261.63 459.555 261.546 459.201 261.546C458.846 261.546 458.529 261.63 458.249 261.798C457.978 261.957 457.763 262.185 457.605 262.484C457.446 262.773 457.367 263.123 457.367 263.534V268H456.065Z" fill="white"/>
<path d="M529.922 268V266.67H530.496C530.99 266.67 531.382 266.525 531.672 266.236C531.961 265.937 532.106 265.536 532.106 265.032V257.57H533.492V265.004C533.492 265.611 533.366 266.138 533.114 266.586C532.871 267.034 532.526 267.384 532.078 267.636C531.63 267.879 531.102 268 530.496 268H529.922ZM538.024 268.168C537.483 268.168 536.993 268.042 536.554 267.79C536.125 267.538 535.789 267.188 535.546 266.74C535.313 266.283 535.196 265.76 535.196 265.172V260.454H536.498V265.032C536.498 265.405 536.573 265.732 536.722 266.012C536.881 266.292 537.095 266.511 537.366 266.67C537.646 266.829 537.963 266.908 538.318 266.908C538.673 266.908 538.985 266.829 539.256 266.67C539.536 266.511 539.751 266.283 539.9 265.984C540.059 265.685 540.138 265.331 540.138 264.92V260.454H541.454V268H540.18V266.53L540.39 266.656C540.213 267.132 539.909 267.505 539.48 267.776C539.06 268.037 538.575 268.168 538.024 268.168ZM543.191 268V257.402H544.493V268H543.191Z" fill="white"/>
<path d="M609.215 268L612.953 257.57H614.577L618.315 268H616.845L615.991 265.55H611.539L610.685 268H609.215ZM611.973 264.29H615.557L613.569 258.564H613.961L611.973 264.29ZM621.733 268.168C621.192 268.168 620.702 268.042 620.263 267.79C619.834 267.538 619.498 267.188 619.255 266.74C619.022 266.283 618.905 265.76 618.905 265.172V260.454H620.207V265.032C620.207 265.405 620.282 265.732 620.431 266.012C620.59 266.292 620.804 266.511 621.075 266.67C621.355 266.829 621.672 266.908 622.027 266.908C622.382 266.908 622.694 266.829 622.965 266.67C623.245 266.511 623.46 266.283 623.609 265.984C623.768 265.685 623.847 265.331 623.847 264.92V260.454H625.163V268H623.889V266.53L624.099 266.656C623.922 267.132 623.618 267.505 623.189 267.776C622.769 268.037 622.284 268.168 621.733 268.168ZM630.498 271.08C629.966 271.08 629.471 270.996 629.014 270.828C628.566 270.66 628.179 270.427 627.852 270.128C627.535 269.839 627.292 269.498 627.124 269.106L628.342 268.546C628.473 268.901 628.72 269.199 629.084 269.442C629.457 269.694 629.924 269.82 630.484 269.82C630.913 269.82 631.301 269.736 631.646 269.568C632.001 269.409 632.281 269.167 632.486 268.84C632.691 268.523 632.794 268.135 632.794 267.678V265.984L633.032 266.236C632.771 266.749 632.393 267.141 631.898 267.412C631.413 267.683 630.876 267.818 630.288 267.818C629.579 267.818 628.944 267.655 628.384 267.328C627.824 266.992 627.385 266.539 627.068 265.97C626.751 265.391 626.592 264.752 626.592 264.052C626.592 263.343 626.751 262.703 627.068 262.134C627.385 261.565 627.819 261.117 628.37 260.79C628.93 260.454 629.565 260.286 630.274 260.286C630.862 260.286 631.394 260.421 631.87 260.692C632.355 260.953 632.743 261.317 633.032 261.784L632.836 262.134V260.454H634.11V267.678C634.11 268.331 633.956 268.915 633.648 269.428C633.34 269.941 632.911 270.343 632.36 270.632C631.819 270.931 631.198 271.08 630.498 271.08ZM630.4 266.558C630.848 266.558 631.249 266.446 631.604 266.222C631.968 265.998 632.257 265.699 632.472 265.326C632.687 264.943 632.794 264.519 632.794 264.052C632.794 263.595 632.687 263.175 632.472 262.792C632.257 262.409 631.968 262.106 631.604 261.882C631.249 261.658 630.848 261.546 630.4 261.546C629.943 261.546 629.527 261.658 629.154 261.882C628.781 262.106 628.487 262.409 628.272 262.792C628.067 263.165 627.964 263.585 627.964 264.052C627.964 264.519 628.067 264.943 628.272 265.326C628.487 265.699 628.776 265.998 629.14 266.222C629.513 266.446 629.933 266.558 630.4 266.558Z" fill="white"/>
<path d="M698.336 268.168C697.674 268.168 697.067 268.047 696.516 267.804C695.966 267.552 695.499 267.211 695.116 266.782C694.734 266.353 694.458 265.872 694.29 265.34L695.48 264.85C695.732 265.522 696.106 266.04 696.6 266.404C697.104 266.759 697.692 266.936 698.364 266.936C698.775 266.936 699.134 266.871 699.442 266.74C699.75 266.609 699.988 266.427 700.156 266.194C700.334 265.951 700.422 265.671 700.422 265.354C700.422 264.915 700.296 264.57 700.044 264.318C699.802 264.057 699.442 263.861 698.966 263.73L697.048 263.142C696.292 262.909 695.714 262.54 695.312 262.036C694.911 261.532 694.71 260.953 694.71 260.3C694.71 259.731 694.846 259.231 695.116 258.802C695.396 258.363 695.779 258.023 696.264 257.78C696.759 257.528 697.319 257.402 697.944 257.402C698.57 257.402 699.134 257.514 699.638 257.738C700.152 257.962 700.586 258.265 700.94 258.648C701.295 259.021 701.556 259.451 701.724 259.936L700.548 260.426C700.324 259.838 699.988 259.395 699.54 259.096C699.092 258.788 698.565 258.634 697.958 258.634C697.585 258.634 697.254 258.699 696.964 258.83C696.684 258.951 696.465 259.133 696.306 259.376C696.157 259.609 696.082 259.889 696.082 260.216C696.082 260.599 696.204 260.939 696.446 261.238C696.689 261.537 697.058 261.765 697.552 261.924L699.302 262.442C700.124 262.694 700.744 263.053 701.164 263.52C701.584 263.987 701.794 264.565 701.794 265.256C701.794 265.825 701.645 266.329 701.346 266.768C701.057 267.207 700.651 267.552 700.128 267.804C699.615 268.047 699.018 268.168 698.336 268.168ZM706.841 268.168C706.113 268.168 705.464 267.995 704.895 267.65C704.326 267.305 703.878 266.833 703.551 266.236C703.224 265.629 703.061 264.953 703.061 264.206C703.061 263.45 703.22 262.778 703.537 262.19C703.864 261.602 704.302 261.14 704.853 260.804C705.413 260.459 706.038 260.286 706.729 260.286C707.289 260.286 707.784 260.389 708.213 260.594C708.652 260.79 709.02 261.061 709.319 261.406C709.627 261.742 709.86 262.129 710.019 262.568C710.187 262.997 710.271 263.445 710.271 263.912C710.271 264.015 710.262 264.131 710.243 264.262C710.234 264.383 710.22 264.5 710.201 264.612H704.013V263.492H709.445L708.829 263.996C708.913 263.511 708.866 263.077 708.689 262.694C708.512 262.311 708.25 262.008 707.905 261.784C707.56 261.56 707.168 261.448 706.729 261.448C706.29 261.448 705.889 261.56 705.525 261.784C705.161 262.008 704.876 262.33 704.671 262.75C704.475 263.161 704.396 263.651 704.433 264.22C704.396 264.771 704.48 265.256 704.685 265.676C704.9 266.087 705.198 266.409 705.581 266.642C705.973 266.866 706.398 266.978 706.855 266.978C707.359 266.978 707.784 266.861 708.129 266.628C708.474 266.395 708.754 266.096 708.969 265.732L710.061 266.292C709.912 266.637 709.678 266.955 709.361 267.244C709.053 267.524 708.684 267.748 708.255 267.916C707.835 268.084 707.364 268.168 706.841 268.168ZM711.689 270.8V260.454H712.963V262.078L712.795 261.756C713.075 261.308 713.457 260.953 713.943 260.692C714.428 260.421 714.983 260.286 715.609 260.286C716.318 260.286 716.953 260.459 717.513 260.804C718.082 261.149 718.53 261.621 718.857 262.218C719.183 262.806 719.347 263.478 719.347 264.234C719.347 264.971 719.183 265.639 718.857 266.236C718.53 266.833 718.082 267.305 717.513 267.65C716.953 267.995 716.313 268.168 715.595 268.168C714.988 268.168 714.433 268.033 713.929 267.762C713.434 267.491 713.051 267.109 712.781 266.614L712.991 266.39V270.8H711.689ZM715.497 266.908C715.973 266.908 716.397 266.791 716.771 266.558C717.144 266.325 717.433 266.007 717.639 265.606C717.853 265.195 717.961 264.738 717.961 264.234C717.961 263.711 717.853 263.254 717.639 262.862C717.433 262.461 717.144 262.143 716.771 261.91C716.397 261.667 715.973 261.546 715.497 261.546C715.021 261.546 714.591 261.663 714.209 261.896C713.835 262.129 713.537 262.451 713.313 262.862C713.098 263.263 712.991 263.721 712.991 264.234C712.991 264.738 713.098 265.195 713.313 265.606C713.537 266.007 713.835 266.325 714.209 266.558C714.591 266.791 715.021 266.908 715.497 266.908Z" fill="white"/>
<path d="M784.833 268.168C784.095 268.168 783.405 268.037 782.761 267.776C782.117 267.505 781.552 267.127 781.067 266.642C780.591 266.157 780.217 265.587 779.947 264.934C779.676 264.271 779.541 263.553 779.541 262.778C779.541 261.994 779.676 261.275 779.947 260.622C780.217 259.969 780.591 259.399 781.067 258.914C781.552 258.429 782.112 258.055 782.747 257.794C783.391 257.533 784.086 257.402 784.833 257.402C785.579 257.402 786.27 257.537 786.905 257.808C787.549 258.069 788.109 258.443 788.585 258.928C789.07 259.404 789.448 259.969 789.719 260.622C789.999 261.275 790.139 261.994 790.139 262.778C790.139 263.553 789.999 264.271 789.719 264.934C789.448 265.587 789.07 266.157 788.585 266.642C788.109 267.127 787.549 267.505 786.905 267.776C786.27 268.037 785.579 268.168 784.833 268.168ZM784.833 266.894C785.411 266.894 785.939 266.791 786.415 266.586C786.891 266.371 787.301 266.077 787.647 265.704C788.001 265.321 788.272 264.883 788.459 264.388C788.655 263.884 788.753 263.347 788.753 262.778C788.753 262.209 788.655 261.677 788.459 261.182C788.272 260.687 788.001 260.253 787.647 259.88C787.301 259.497 786.891 259.203 786.415 258.998C785.939 258.783 785.411 258.676 784.833 258.676C784.263 258.676 783.741 258.783 783.265 258.998C782.789 259.203 782.373 259.497 782.019 259.88C781.673 260.253 781.403 260.687 781.207 261.182C781.011 261.677 780.913 262.209 780.913 262.778C780.913 263.347 781.011 263.884 781.207 264.388C781.403 264.883 781.673 265.321 782.019 265.704C782.373 266.077 782.789 266.371 783.265 266.586C783.741 266.791 784.263 266.894 784.833 266.894ZM795.206 268.168C794.468 268.168 793.81 267.995 793.232 267.65C792.662 267.305 792.214 266.833 791.888 266.236C791.561 265.639 791.398 264.967 791.398 264.22C791.398 263.464 791.561 262.792 791.888 262.204C792.214 261.616 792.662 261.149 793.232 260.804C793.81 260.459 794.468 260.286 795.206 260.286C795.7 260.286 796.162 260.375 796.592 260.552C797.021 260.729 797.399 260.967 797.726 261.266C798.052 261.565 798.29 261.915 798.44 262.316L797.278 262.876C797.1 262.484 796.83 262.167 796.466 261.924C796.102 261.672 795.682 261.546 795.206 261.546C794.748 261.546 794.333 261.663 793.96 261.896C793.596 262.129 793.306 262.447 793.092 262.848C792.877 263.249 792.77 263.711 792.77 264.234C792.77 264.738 792.877 265.195 793.092 265.606C793.306 266.007 793.596 266.325 793.96 266.558C794.333 266.791 794.748 266.908 795.206 266.908C795.682 266.908 796.102 266.787 796.466 266.544C796.83 266.292 797.1 265.961 797.278 265.55L798.44 266.138C798.29 266.53 798.052 266.88 797.726 267.188C797.399 267.487 797.021 267.725 796.592 267.902C796.162 268.079 795.7 268.168 795.206 268.168ZM802.927 268.084C802.19 268.084 801.621 267.874 801.219 267.454C800.827 267.034 800.631 266.441 800.631 265.676V261.7H799.259V260.454H799.539C799.875 260.454 800.141 260.351 800.337 260.146C800.533 259.941 800.631 259.67 800.631 259.334V258.718H801.933V260.454H803.627V261.7H801.933V265.634C801.933 265.886 801.971 266.105 802.045 266.292C802.129 266.479 802.265 266.628 802.451 266.74C802.638 266.843 802.885 266.894 803.193 266.894C803.259 266.894 803.338 266.889 803.431 266.88C803.534 266.871 803.627 266.861 803.711 266.852V268C803.59 268.028 803.455 268.047 803.305 268.056C803.156 268.075 803.03 268.084 802.927 268.084Z" fill="white"/>
<path d="M864.303 268V257.57H865.451L871.443 265.998L870.925 266.054V257.57H872.311V268H871.163L865.199 259.516L865.675 259.46V268H864.303ZM877.789 268.168C877.061 268.168 876.403 268 875.815 267.664C875.227 267.319 874.76 266.847 874.415 266.25C874.069 265.653 873.897 264.976 873.897 264.22C873.897 263.464 874.065 262.792 874.401 262.204C874.746 261.616 875.213 261.149 875.801 260.804C876.389 260.459 877.051 260.286 877.789 260.286C878.517 260.286 879.175 260.459 879.763 260.804C880.351 261.14 880.813 261.602 881.149 262.19C881.494 262.778 881.667 263.455 881.667 264.22C881.667 264.985 881.489 265.667 881.135 266.264C880.78 266.852 880.309 267.319 879.721 267.664C879.142 268 878.498 268.168 877.789 268.168ZM877.789 266.908C878.255 266.908 878.675 266.791 879.049 266.558C879.431 266.325 879.73 266.003 879.945 265.592C880.169 265.181 880.281 264.724 880.281 264.22C880.281 263.707 880.169 263.254 879.945 262.862C879.73 262.461 879.431 262.143 879.049 261.91C878.675 261.667 878.255 261.546 877.789 261.546C877.313 261.546 876.883 261.667 876.501 261.91C876.127 262.143 875.829 262.461 875.605 262.862C875.381 263.254 875.269 263.707 875.269 264.22C875.269 264.724 875.381 265.181 875.605 265.592C875.829 266.003 876.127 266.325 876.501 266.558C876.883 266.791 877.313 266.908 877.789 266.908ZM885.048 268L882.094 260.454H883.55L885.916 266.838H885.412L887.792 260.454H889.248L886.28 268H885.048Z" fill="white"/>
<path d="M949.379 268V257.57H952.795C953.849 257.57 954.769 257.785 955.553 258.214C956.337 258.643 956.943 259.25 957.373 260.034C957.802 260.809 958.017 261.723 958.017 262.778C958.017 263.823 957.802 264.738 957.373 265.522C956.943 266.306 956.337 266.917 955.553 267.356C954.769 267.785 953.849 268 952.795 268H949.379ZM950.751 266.74H952.809C953.583 266.74 954.251 266.577 954.811 266.25C955.38 265.923 955.819 265.466 956.127 264.878C956.435 264.281 956.589 263.581 956.589 262.778C956.589 261.966 956.43 261.266 956.113 260.678C955.805 260.09 955.366 259.637 954.797 259.32C954.237 258.993 953.574 258.83 952.809 258.83H950.751V266.74ZM962.793 268.168C962.065 268.168 961.417 267.995 960.847 267.65C960.278 267.305 959.83 266.833 959.503 266.236C959.177 265.629 959.013 264.953 959.013 264.206C959.013 263.45 959.172 262.778 959.489 262.19C959.816 261.602 960.255 261.14 960.805 260.804C961.365 260.459 961.991 260.286 962.681 260.286C963.241 260.286 963.736 260.389 964.165 260.594C964.604 260.79 964.973 261.061 965.271 261.406C965.579 261.742 965.813 262.129 965.971 262.568C966.139 262.997 966.223 263.445 966.223 263.912C966.223 264.015 966.214 264.131 966.195 264.262C966.186 264.383 966.172 264.5 966.153 264.612H959.965V263.492H965.397L964.781 263.996C964.865 263.511 964.819 263.077 964.641 262.694C964.464 262.311 964.203 262.008 963.857 261.784C963.512 261.56 963.12 261.448 962.681 261.448C962.243 261.448 961.841 261.56 961.477 261.784C961.113 262.008 960.829 262.33 960.623 262.75C960.427 263.161 960.348 263.651 960.385 264.22C960.348 264.771 960.432 265.256 960.637 265.676C960.852 266.087 961.151 266.409 961.533 266.642C961.925 266.866 962.35 266.978 962.807 266.978C963.311 266.978 963.736 266.861 964.081 266.628C964.427 266.395 964.707 266.096 964.921 265.732L966.013 266.292C965.864 266.637 965.631 266.955 965.313 267.244C965.005 267.524 964.637 267.748 964.207 267.916C963.787 268.084 963.316 268.168 962.793 268.168ZM970.343 268.168C969.587 268.168 968.929 267.981 968.369 267.608C967.809 267.235 967.412 266.731 967.179 266.096L968.215 265.592C968.43 266.04 968.724 266.395 969.097 266.656C969.47 266.917 969.886 267.048 970.343 267.048C970.754 267.048 971.094 266.95 971.365 266.754C971.636 266.558 971.771 266.301 971.771 265.984C971.771 265.76 971.706 265.583 971.575 265.452C971.454 265.312 971.304 265.205 971.127 265.13C970.95 265.046 970.786 264.985 970.637 264.948L969.503 264.626C968.822 264.43 968.322 264.15 968.005 263.786C967.697 263.422 967.543 262.997 967.543 262.512C967.543 262.064 967.655 261.677 967.879 261.35C968.112 261.014 968.425 260.753 968.817 260.566C969.218 260.379 969.666 260.286 970.161 260.286C970.824 260.286 971.416 260.454 971.939 260.79C972.471 261.126 972.849 261.597 973.073 262.204L972.009 262.694C971.841 262.302 971.589 261.994 971.253 261.77C970.917 261.537 970.539 261.42 970.119 261.42C969.736 261.42 969.433 261.518 969.209 261.714C968.985 261.901 968.873 262.139 968.873 262.428C968.873 262.643 968.929 262.82 969.041 262.96C969.153 263.091 969.288 263.193 969.447 263.268C969.606 263.333 969.76 263.389 969.909 263.436L971.141 263.8C971.757 263.977 972.233 264.253 972.569 264.626C972.914 264.999 973.087 265.447 973.087 265.97C973.087 266.39 972.97 266.768 972.737 267.104C972.504 267.44 972.182 267.701 971.771 267.888C971.36 268.075 970.884 268.168 970.343 268.168Z" fill="white"/>
</svg>
