<svg width="12" height="12" viewBox="0 0 12 12" fill="none" xmlns="http://www.w3.org/2000/svg">
<path d="M1.5 5.5H10.5M2.5 5.5V3.5C2.5 3.10218 2.65804 2.72064 2.93934 2.43934C3.22064 2.15804 3.60218 2 4 2H8C8.39782 2 8.77936 2.15804 9.06066 2.43934C9.34196 2.72064 9.5 3.10218 9.5 3.5V5.5M5 8.5C5 8.69698 4.9612 8.89204 4.88582 9.07403C4.81044 9.25601 4.69995 9.42137 4.56066 9.56066C4.42137 9.69995 4.25601 9.81044 4.07403 9.88582C3.89204 9.9612 3.69698 10 3.5 10C3.30302 10 3.10796 9.9612 2.92597 9.88582C2.74399 9.81044 2.57863 9.69995 2.43934 9.56066C2.30005 9.42137 2.18956 9.25601 2.11418 9.07403C2.0388 8.89204 2 8.69698 2 8.5C2 8.30302 2.0388 8.10796 2.11418 7.92597C2.18956 7.74399 2.30005 7.57863 2.43934 7.43934C2.57863 7.30005 2.74399 7.18956 2.92597 7.11418C3.10796 7.0388 3.30302 7 3.5 7C3.69698 7 3.89204 7.0388 4.07403 7.11418C4.25601 7.18956 4.42137 7.30005 4.56066 7.43934C4.69995 7.57863 4.81044 7.74399 4.88582 7.92597C4.9612 8.10796 5 8.30302 5 8.5ZM5 8.5H7M7 8.5C7 8.89782 7.15804 9.27936 7.43934 9.56066C7.72064 9.84196 8.10218 10 8.5 10C8.89782 10 9.27936 9.84196 9.56066 9.56066C9.84196 9.27936 10 8.89782 10 8.5C10 8.10218 9.84196 7.72064 9.56066 7.43934C9.27936 7.15804 8.89782 7 8.5 7C8.10218 7 7.72064 7.15804 7.43934 7.43934C7.15804 7.72064 7 8.10218 7 8.5Z" stroke="#FDB022" stroke-linecap="round" stroke-linejoin="round"/>
</svg>
