<svg width="20" height="20" viewBox="0 0 20 20" fill="none" xmlns="http://www.w3.org/2000/svg">
<path fill-rule="evenodd" clip-rule="evenodd" d="M10.0308 7.26074C10.3759 7.26074 10.6558 7.54056 10.6558 7.88574V13.8427C10.6558 14.188 10.3759 14.4677 10.0308 14.4677C9.6856 14.4677 9.40576 14.188 9.40576 13.8427V7.88574C9.40576 7.54056 9.6856 7.26074 10.0308 7.26074Z" fill="#101010"/>
<path fill-rule="evenodd" clip-rule="evenodd" d="M6.42383 10.8643C6.42383 10.5191 6.70365 10.2393 7.04883 10.2393H13.012C13.3572 10.2393 13.637 10.5191 13.637 10.8643C13.637 11.2094 13.3572 11.4893 13.012 11.4893H7.04883C6.70365 11.4893 6.42383 11.2094 6.42383 10.8643Z" fill="#101010"/>
<path fill-rule="evenodd" clip-rule="evenodd" d="M4.13377 4.96705C3.05123 6.04958 2.54172 7.85616 2.54172 10.864C2.54172 13.8719 3.05123 15.6785 4.13377 16.761C5.21631 17.8436 7.02288 18.3531 10.0308 18.3531C13.0386 18.3531 14.8452 17.8436 15.9278 16.761C17.0103 15.6785 17.5198 13.8719 17.5198 10.864C17.5198 7.85616 17.0103 6.04958 15.9278 4.96705C14.8452 3.88451 13.0386 3.375 10.0308 3.375C7.02288 3.375 5.21631 3.88451 4.13377 4.96705ZM3.24988 4.08317C4.70309 2.62996 6.95354 2.125 10.0308 2.125C13.1079 2.125 15.3584 2.62996 16.8116 4.08317C18.2648 5.53637 18.7698 7.78683 18.7698 10.864C18.7698 13.9413 18.2648 16.1917 16.8116 17.6449C15.3584 19.0981 13.1079 19.6031 10.0308 19.6031C6.95354 19.6031 4.70309 19.0981 3.24988 17.6449C1.79668 16.1917 1.29172 13.9413 1.29172 10.864C1.29172 7.78683 1.79668 5.53637 3.24988 4.08317Z" fill="#101010"/>
</svg>
